<mxfile host="app.diagrams.net" agent="Mozilla/5.0 (Windows NT 10.0; Win64; x64) AppleWebKit/537.36 (KHTML, like Gecko) Chrome/127.0.0.0 Safari/537.36" version="24.7.6">
  <diagram name="PÃ¡gina-1" id="AdzWSxK9_mDZZjzoNh8k">
    <mxGraphModel grid="1" page="1" gridSize="10" guides="1" tooltips="1" connect="1" arrows="1" fold="1" pageScale="1" pageWidth="827" pageHeight="1169" math="0" shadow="0">
      <root>
        <mxCell id="0" />
        <mxCell id="1" parent="0" />
        <mxCell id="FrU--DcujTXro6KYjh0u-15" value="Actor" style="shape=umlActor;verticalLabelPosition=bottom;verticalAlign=top;outlineConnect=0;shadow=1;noLabel=1;" vertex="1" parent="1">
          <mxGeometry x="130" y="210" width="30" height="60" as="geometry" />
        </mxCell>
        <mxCell id="FrU--DcujTXro6KYjh0u-16" value="Actor" style="shape=umlActor;verticalLabelPosition=bottom;verticalAlign=top;outlineConnect=0;noLabel=1;shadow=1;" vertex="1" parent="1">
          <mxGeometry x="140" y="480" width="10" height="30" as="geometry" />
        </mxCell>
        <mxCell id="FrU--DcujTXro6KYjh0u-24" value="" style="html=1;whiteSpace=wrap;aspect=fixed;shape=isoRectangle;shadow=1;fillColor=#fff2cc;strokeColor=#d6b656;" vertex="1" parent="1">
          <mxGeometry x="84.75" y="340" width="120.5" height="72.3" as="geometry" />
        </mxCell>
        <mxCell id="FrU--DcujTXro6KYjh0u-25" value="" style="html=1;whiteSpace=wrap;aspect=fixed;shape=isoRectangle;shadow=1;" vertex="1" parent="1">
          <mxGeometry x="97.5" y="347.65" width="95" height="57" as="geometry" />
        </mxCell>
        <mxCell id="FrU--DcujTXro6KYjh0u-26" style="edgeStyle=orthogonalEdgeStyle;rounded=0;orthogonalLoop=1;jettySize=auto;html=1;exitX=0.5;exitY=0.5;exitDx=0;exitDy=0;exitPerimeter=0;entryX=0.5;entryY=0;entryDx=0;entryDy=0;entryPerimeter=0;startArrow=none;startFill=0;endArrow=none;endFill=0;shadow=1;" edge="1" parent="1" source="FrU--DcujTXro6KYjh0u-15" target="FrU--DcujTXro6KYjh0u-24">
          <mxGeometry relative="1" as="geometry" />
        </mxCell>
        <mxCell id="FrU--DcujTXro6KYjh0u-27" style="edgeStyle=orthogonalEdgeStyle;rounded=0;orthogonalLoop=1;jettySize=auto;html=1;exitX=0.5;exitY=0;exitDx=0;exitDy=0;exitPerimeter=0;entryX=0.5;entryY=1.01;entryDx=0;entryDy=0;entryPerimeter=0;endArrow=none;endFill=0;shadow=1;" edge="1" parent="1" source="FrU--DcujTXro6KYjh0u-16" target="FrU--DcujTXro6KYjh0u-24">
          <mxGeometry relative="1" as="geometry" />
        </mxCell>
        <mxCell id="FrU--DcujTXro6KYjh0u-28" value="Baixa&lt;br&gt;Prioridade" style="text;html=1;align=center;verticalAlign=middle;whiteSpace=wrap;rounded=0;shadow=1;" vertex="1" parent="1">
          <mxGeometry x="117.5" y="366.65" width="55" height="19" as="geometry" />
        </mxCell>
        <mxCell id="FrU--DcujTXro6KYjh0u-29" value="" style="html=1;whiteSpace=wrap;aspect=fixed;shape=isoRectangle;shadow=1;fillColor=#d5e8d4;strokeColor=#82b366;" vertex="1" parent="1">
          <mxGeometry x="310" y="195" width="150" height="90" as="geometry" />
        </mxCell>
        <mxCell id="FrU--DcujTXro6KYjh0u-30" value="" style="shape=actor;whiteSpace=wrap;html=1;shadow=1;" vertex="1" parent="1">
          <mxGeometry x="640" y="210" width="40" height="60" as="geometry" />
        </mxCell>
        <mxCell id="FrU--DcujTXro6KYjh0u-31" value="Alta&lt;br&gt;Prioridade" style="text;html=1;align=center;verticalAlign=middle;whiteSpace=wrap;rounded=0;shadow=1;" vertex="1" parent="1">
          <mxGeometry x="355" y="225" width="60" height="30" as="geometry" />
        </mxCell>
        <mxCell id="FrU--DcujTXro6KYjh0u-32" style="edgeStyle=orthogonalEdgeStyle;rounded=0;orthogonalLoop=1;jettySize=auto;html=1;exitX=0.5;exitY=0.5;exitDx=0;exitDy=0;exitPerimeter=0;entryX=0.013;entryY=0.5;entryDx=0;entryDy=0;entryPerimeter=0;endArrow=none;endFill=0;shadow=1;" edge="1" parent="1" source="FrU--DcujTXro6KYjh0u-15" target="FrU--DcujTXro6KYjh0u-29">
          <mxGeometry relative="1" as="geometry" />
        </mxCell>
        <mxCell id="FrU--DcujTXro6KYjh0u-33" style="edgeStyle=orthogonalEdgeStyle;rounded=0;orthogonalLoop=1;jettySize=auto;html=1;exitX=0.1;exitY=0.5;exitDx=0;exitDy=0;exitPerimeter=0;entryX=1;entryY=0.5;entryDx=0;entryDy=0;entryPerimeter=0;endArrow=none;endFill=0;shadow=1;" edge="1" parent="1" source="FrU--DcujTXro6KYjh0u-30" target="FrU--DcujTXro6KYjh0u-29">
          <mxGeometry relative="1" as="geometry" />
        </mxCell>
        <mxCell id="FrU--DcujTXro6KYjh0u-34" value="Ricardin" style="text;html=1;align=center;verticalAlign=middle;whiteSpace=wrap;rounded=0;shadow=1;" vertex="1" parent="1">
          <mxGeometry x="115" y="190" width="60" height="30" as="geometry" />
        </mxCell>
        <mxCell id="FrU--DcujTXro6KYjh0u-35" value="Filhos de&lt;br&gt;Ricardin" style="text;html=1;align=center;verticalAlign=middle;whiteSpace=wrap;rounded=0;shadow=1;" vertex="1" parent="1">
          <mxGeometry x="115" y="510" width="60" height="30" as="geometry" />
        </mxCell>
        <mxCell id="FrU--DcujTXro6KYjh0u-36" value="Empresa&lt;br&gt;Mercenaria" style="text;html=1;align=center;verticalAlign=middle;whiteSpace=wrap;rounded=0;shadow=1;" vertex="1" parent="1">
          <mxGeometry x="630" y="170" width="60" height="30" as="geometry" />
        </mxCell>
        <mxCell id="FrU--DcujTXro6KYjh0u-39" value="" style="verticalLabelPosition=bottom;verticalAlign=top;html=1;shape=mxgraph.basic.drop;rotation=257;fillColor=#3399FF;strokeColor=#3399FF;" vertex="1" parent="1">
          <mxGeometry x="160" y="470" width="10" height="20" as="geometry" />
        </mxCell>
        <mxCell id="FrU--DcujTXro6KYjh0u-40" value="" style="verticalLabelPosition=bottom;verticalAlign=top;html=1;shape=mxgraph.basic.drop;rotation=292;fillColor=#3399FF;strokeColor=#3399FF;" vertex="1" parent="1">
          <mxGeometry x="160" y="485" width="10" height="20" as="geometry" />
        </mxCell>
        <mxCell id="FrU--DcujTXro6KYjh0u-41" value="" style="verticalLabelPosition=bottom;verticalAlign=top;html=1;shape=mxgraph.basic.drop;rotation=77;fillColor=#3399FF;strokeColor=#3399FF;" vertex="1" parent="1">
          <mxGeometry x="120" y="480" width="10" height="20" as="geometry" />
        </mxCell>
      </root>
    </mxGraphModel>
  </diagram>
</mxfile>
